<svg width="480" height="480" xmlns="http://www.w3.org/2000/svg" fill="none">

 <g>
  <title>Layer 1</title>
  <ellipse stroke="#000000" stroke-width="36" ry="222" rx="222" id="svg_3" cy="240" cx="240" fill="none"/>
  <g stroke="null" id="svg_4">
   <path stroke="null" id="svg_2" fill="black" d="m150,128.67902l90,52.11871l90,-52.11871l-90,-52.11871l-90,52.11871z"/>
   <path stroke="null" id="svg_1" fill="black" d="m310.76903,387.06612l-7.1071,0c-2.772,0 -5.43019,-1.1009 -7.39045,-3.06116c-1.96026,-1.96026 -3.06116,-4.61845 -3.06116,-7.39045l0,-87.23613l-106.56,0l0,87.23613c0,2.772 -1.10114,5.43019 -3.06116,7.39045c-1.96014,1.96026 -4.61857,3.06116 -7.39045,3.06116l-6.96774,0c-2.772,0 -5.43031,-1.1009 -7.39045,-3.06116c-1.96001,-1.96026 -3.06116,-4.61845 -3.06116,-7.39045l0,-200.90323l27.87097,18.58065l0,72.29032l106.54839,0l0,-72.29032l28.02194,-18.58065l0,200.90323c0,2.772 -1.1009,5.43019 -3.06116,7.39045c-1.96026,1.96026 -4.61845,3.06116 -7.39045,3.06116z"/>
  </g>
 </g>
</svg>