<svg width="155" height="268" viewBox="0 0 155 268" fill="none" xmlns="http://www.w3.org/2000/svg">
<path d="M138.44 267.38H132.32C129.933 267.38 127.644 266.432 125.956 264.744C124.268 263.056 123.32 260.767 123.32 258.38V183.26H31.56V258.38C31.56 260.767 30.6118 263.056 28.924 264.744C27.2361 266.432 24.9469 267.38 22.56 267.38H16.56C14.173 267.38 11.8839 266.432 10.196 264.744C8.50821 263.056 7.56 260.767 7.56 258.38V85.38L31.56 101.38V163.63H123.31V101.38L147.44 85.38V258.38C147.44 260.767 146.492 263.056 144.804 264.744C143.116 266.432 140.827 267.38 138.44 267.38Z" fill="black"/>
<path d="M0 44.88L77.5 89.76L155 44.88L77.5 0L0 44.88Z" fill="black"/>
</svg>
